<?xml version="1.0" encoding="utf-8"?><svg xmlns="http://www.w3.org/2000/svg" xmlns:xlink="http://www.w3.org/1999/xlink"><symbol viewBox="0 0 24 24" id="search" xmlns="http://www.w3.org/2000/svg"><path d="M9.516 14.016c2.484 0 4.5-2.016 4.5-4.5s-2.016-4.5-4.5-4.5-4.5 2.016-4.5 4.5 2.016 4.5 4.5 4.5zm6 0l4.969 4.969-1.5 1.5-4.969-4.969v-.797l-.281-.281c-1.125.984-2.625 1.547-4.219 1.547C5.907 15.985 3 13.126 3 9.516S5.906 3 9.516 3s6.469 2.906 6.469 6.516c0 1.594-.563 3.094-1.547 4.219l.281.281h.797z"/></symbol></svg>