<?xml version="1.0" encoding="utf-8"?><svg xmlns="http://www.w3.org/2000/svg" xmlns:xlink="http://www.w3.org/1999/xlink"><symbol viewBox="0 0 32 32" id="curved-arrow" xmlns="http://www.w3.org/2000/svg"><path d="M28 18c0-7.73-6.27-14-14-14S0 10.27 0 18C0 12.477 4.477 8 10 8s10 4.477 10 10v2h-4l8 8 8-8h-4v-2z"/></symbol><symbol viewBox="0 0 32 32" id="forward" xmlns="http://www.w3.org/2000/svg"><path d="M8.192 0C4.638 6.439 4.039 16.259 18 15.932V8l12 12-12 12v-7.762C1.282 24.674-.58 9.481 8.192 0z"/></symbol><symbol viewBox="0 0 32 32" id="reply" xmlns="http://www.w3.org/2000/svg"><path d="M14 24.238V32L2 20 14 8v7.932C27.961 16.259 27.362 6.439 23.808 0 32.58 9.482 30.717 24.674 14 24.238z"/></symbol><symbol viewBox="0 0 24 24" id="search" xmlns="http://www.w3.org/2000/svg"><path d="M9.516 14.016c2.484 0 4.5-2.016 4.5-4.5s-2.016-4.5-4.5-4.5-4.5 2.016-4.5 4.5 2.016 4.5 4.5 4.5zm6 0l4.969 4.969-1.5 1.5-4.969-4.969v-.797l-.281-.281c-1.125.984-2.625 1.547-4.219 1.547C5.907 15.985 3 13.126 3 9.516S5.906 3 9.516 3s6.469 2.906 6.469 6.516c0 1.594-.563 3.094-1.547 4.219l.281.281h.797z"/></symbol></svg>